<svg width="377" height="100" viewBox="0 0 377 100" fill="none" xmlns="http://www.w3.org/2000/svg">
<path d="M120.204 23.4502H110.54C108.969 23.4502 107.693 24.726 107.693 26.297L107.731 49.9283C107.731 52.2991 105.808 54.2223 103.437 54.2223H91.0787C91.7547 52.3086 92.1355 50.233 92.2402 48.1193C92.2974 46.5198 92.2974 26.3732 92.2974 26.3732C92.2974 24.7927 91.1929 23.4407 89.6219 23.4407H79.7771C78.2062 23.4407 76.9303 24.7927 76.9303 26.3636V50.0331C76.9303 52.3276 75.0737 54.1842 72.7792 54.1842L65.7812 54.2033C63.5247 54.2033 61.6871 52.5942 61.5252 50.3758V25.84C61.5252 24.5261 60.4589 23.4502 59.1354 23.4502L48.5194 23.4311C47.196 23.4311 46.1296 24.4975 46.1296 25.8209L46.1582 70.4272C46.1582 75.5019 43.9303 77.2729 40.1314 77.2729H21.0892C17.2903 77.2729 15.3765 74.7974 15.3765 71.5317V41.664C15.3765 40.093 13.996 38.8172 12.425 38.8172H2.8468C1.27582 38.8172 0 40.093 0 41.664V71.1318C0 83.0141 9.63533 92.6494 21.5176 92.6494H39.9124C51.7185 92.6494 61.5443 83.0807 61.5443 71.2746V68.066C63.4485 69.5608 71.3415 69.6179 71.3415 69.6179C78.4442 69.6179 80.7102 68.4659 83.9664 66.4855L86.7466 69.0086C87.0798 69.3418 87.5368 69.5417 88.0129 69.5417L102.523 69.5989C113.901 69.6465 123.041 60.3253 123.05 48.9476C123.06 37.827 123.07 26.2684 123.07 26.2684C123.07 24.6879 121.794 23.4121 120.213 23.4121" fill="#B12BA4"/>
<path d="M184.51 61.5345L192.203 68.7039C192.536 69.0371 192.974 69.218 193.45 69.218H224.974C236.257 69.218 245.435 60.3444 245.997 49.2047C246.025 49.0333 246.044 25.859 246.044 25.859C246.044 24.3166 244.797 23.0693 243.255 23.0693H233.476C231.934 23.0693 230.687 24.3166 230.687 25.859V49.6332C230.687 51.9563 228.802 53.8415 226.478 53.8415H184.5" fill="#B12BA4"/>
<path d="M243.007 76.9209H218.395C216.719 76.9209 215.357 78.2824 215.357 79.9581V89.2697C215.357 90.9455 216.719 92.307 218.395 92.307H230.743V96.9628C230.743 98.6385 232.105 100 233.781 100H243.007C244.682 100 246.044 98.6385 246.044 96.9628V79.9676C246.044 78.2919 244.682 76.9304 243.007 76.9304" fill="#B12BA4"/>
<path d="M146.053 44.1016C146.501 45.3299 147.672 46.1392 148.976 46.1392H158.516C160.639 46.1392 162.125 44.035 161.401 42.0356L146.053 2.02799C145.615 0.809293 144.454 0 143.159 0H133.704C131.6 0 130.143 2.08512 130.857 4.05598L146.053 44.1016Z" fill="#B12BA4"/>
<path d="M189.183 0.314207H180.034C178.367 0.314207 177.015 1.6662 177.015 3.32287V49.8143C177.015 52.3279 174.987 54.3559 172.474 54.3559L139.836 54.3178C138.96 54.3178 138.112 54.6701 137.493 55.2889L131.628 60.8778C131.009 61.4967 130.657 62.3441 130.657 63.22V66.5905C130.657 68.2186 131.981 69.5325 133.599 69.5325H169.437C181.614 69.5325 191.525 59.9638 192.125 47.9291L192.182 3.31335C192.182 1.64716 190.83 0.304688 189.174 0.304688" fill="#B12BA4"/>
<path d="M331.787 0H322.223C320.139 0 318.407 1.53963 318.073 3.59248C314.933 22.7713 299.783 37.911 280.588 41.0568C278.532 41.399 277 43.1192 277 45.2005V54.5334C277 56.6147 278.532 58.3349 280.588 58.6771C299.868 61.8419 315.057 77.0956 318.112 96.3885C318.435 98.4509 320.167 100 322.261 100H331.739C333.833 100 335.565 98.4509 335.888 96.3885C338.934 77.0956 354.132 61.8419 373.412 58.6771C375.468 58.3444 377 56.6147 377 54.5334V45.2005C377 43.1192 375.468 41.399 373.412 41.0568C354.217 37.9015 339.067 22.7618 335.927 3.59248C335.593 1.53963 333.861 0 331.777 0M327.01 72.9709C321.518 63.3625 313.544 55.3602 303.941 49.8574C313.544 44.3547 321.518 36.3524 327 26.744C332.482 36.3524 340.456 44.3547 350.059 49.8574C340.456 55.3602 332.482 63.3625 327 72.9709" fill="#B12BA4"/>
</svg>
